<svg width="801" height="800" viewBox="0 0 801 800" fill="none" xmlns="http://www.w3.org/2000/svg">
<path fill-rule="evenodd" clip-rule="evenodd" d="M400.188 800C621.102 800 800.189 620.914 800.189 400C800.189 179.086 621.102 0 400.188 0C179.275 0 0.188477 179.086 0.188477 400C0.188477 620.914 179.275 800 400.188 800ZM573.504 524.894C577.095 519.376 584.203 516.894 590.155 519.713V519.737C597.047 523.015 599.553 531.352 595.866 537.786C550.203 617.015 474.613 670.653 382.565 662.677C257.577 651.858 178.179 520.894 188.782 398.34C197.047 302.798 255.504 226.027 335.697 195.641C320.613 185.376 315.408 182.75 315.408 182.75C310.227 179.737 304.926 176.894 299.553 174.268C277.745 163.665 249.312 155.954 225.697 165.159C218.685 167.882 212.059 172.195 207.769 178.388C199.697 190.075 201.095 206.99 207.649 219.039C208.709 220.99 210.035 223.231 211.504 225.593C218.541 236.846 217.818 251.328 209.866 261.954C193.384 283.954 158.613 276.701 152.468 249.93C148.227 231.448 149.625 217.111 150.685 210.894C154.541 188.219 174.444 166.268 193.601 153.93C198.444 150.798 203.529 148.003 208.781 145.617C215.095 142.774 221.697 140.509 228.468 139.039C228.468 139.039 279.312 126.436 341.673 170.075C341.673 170.075 350.324 176.171 364.227 186.99C386.035 182.027 409.047 180.34 432.806 182.388C462.01 184.918 491.095 193.135 516.613 207.762C581.143 243.762 610.01 313.015 579.071 373.304C575.022 381.207 569.673 387.93 563.456 393.472C531.48 421.954 479.36 418.027 457.384 379.593C451.433 369.178 447.59 357.71 443.778 346.333C443.638 345.918 443.499 345.502 443.36 345.087C441.191 338.677 438.998 332.268 436.709 325.882C429.914 307.063 422.227 288.557 411.914 271.376C399.239 250.219 376.444 224.774 363.288 216.243C228.468 274.99 258.902 468.605 258.902 468.605C271.842 541.593 316.926 604.677 390.324 625.328C469.697 647.641 528.396 594.798 573.504 524.894ZM538.444 311.954C537.745 297.111 535.263 282.219 529.504 268.533L529.529 268.557C508.806 219.256 438.444 194.003 388.757 206.846C427.866 241.111 450.782 286.677 466.637 335.521C466.837 336.14 467.037 336.76 467.237 337.381C469.704 345.041 472.191 352.76 476.203 359.737C480.541 367.28 486.902 374.003 495.095 376.942C511.384 382.774 525.143 370.147 531.48 356.436C537.818 342.653 539.143 326.942 538.444 311.954Z" fill="black"/>
</svg>
